<?xml version="1.0" standalone="no"?>
<!DOCTYPE svg PUBLIC "-//W3C//DTD SVG 20010904//EN"
 "http://www.w3.org/TR/2001/REC-SVG-20010904/DTD/svg10.dtd">
<svg version="1.0" xmlns="http://www.w3.org/2000/svg"
 width="300.000000pt" height="200.000000pt" viewBox="0 0 300.000000 200.000000"
 preserveAspectRatio="xMidYMid meet">
<metadata>
Created by potrace 1.10, written by Peter Selinger 2001-2011
</metadata>
<g transform="translate(0.000000,200.000000) scale(0.100000,-0.100000)"
fill="#000000" stroke="none">
<path d="M1433 1903 c4 -3 10 -3 14 0 3 4 0 7 -7 7 -7 0 -10 -3 -7 -7z"/>
<path d="M1501 1901 c69 -13 109 -38 109 -66 -1 -5 -7 -2 -14 7 -7 10 -15 16
-18 13 -2 -2 -26 4 -54 14 -27 10 -74 22 -104 25 -116 14 -265 -44 -302 -119
-6 -13 -1 -10 14 7 29 34 86 58 135 57 l38 0 -40 -13 c-62 -21 -105 -44 -164
-86 -60 -44 -103 -51 -149 -24 l-27 16 29 -27 c26 -24 36 -27 77 -23 46 5 47
5 28 -15 -10 -11 -16 -23 -14 -27 3 -4 -3 -14 -12 -21 -9 -8 -17 -12 -18 -9
-1 3 -14 -10 -29 -27 -25 -29 -34 -33 -78 -33 -27 0 -59 5 -71 12 -20 10 -21
10 -8 -5 7 -10 31 -20 52 -23 l39 -7 -31 -35 c-34 -39 -60 -91 -58 -119 0 -11
4 -8 9 9 7 25 68 118 77 118 6 0 -7 -22 -25 -42 -14 -17 -16 -28 -20 -100 -1
-19 -11 -32 -29 -42 -16 -8 -23 -15 -18 -16 6 0 25 9 43 20 35 22 35 20 -10
-47 -16 -22 -31 -56 -34 -75 l-5 -33 14 37 c8 20 27 52 42 70 18 20 26 25 21
13 -26 -67 -24 -166 5 -228 11 -24 9 -30 -26 -69 -21 -24 -43 -46 -49 -50 -25
-17 9 -6 39 12 l33 21 -15 -58 c-14 -53 -11 -117 5 -127 4 -2 7 21 8 53 0 39
8 71 26 105 l25 49 0 -59 c0 -89 22 -130 103 -193 21 -16 25 -28 25 -70 0 -61
11 -54 22 14 l9 50 18 -34 c12 -22 17 -49 14 -81 -1 -27 0 -46 5 -43 4 2 25
-10 47 -27 35 -27 38 -34 30 -56 -14 -35 -13 -36 10 -24 23 12 25 7 9 -23 -12
-21 -12 -21 15 -4 26 17 26 17 26 -9 0 -59 -69 -123 -141 -129 -22 -2 -57 -16
-81 -33 -24 -17 -61 -33 -83 -37 -62 -10 -289 -65 -301 -73 -10 -7 -68 -94
-93 -140 l-12 -22 416 0 c270 0 415 3 415 10 0 6 -6 10 -14 10 -8 0 -16 3 -18
8 -1 4 -21 21 -43 37 -52 38 -185 188 -185 208 0 3 24 17 54 30 38 18 63 38
82 66 25 39 26 45 19 122 l-7 82 44 -36 c74 -60 140 -97 174 -97 31 0 163 78
194 115 19 23 28 18 22 -11 -4 -20 -2 -25 8 -19 10 6 11 -2 6 -39 -6 -39 -3
-53 20 -96 26 -48 31 -52 96 -71 37 -12 70 -25 73 -30 8 -12 -7 -38 -70 -115
-51 -63 -66 -74 -163 -121 -59 -28 -101 -52 -94 -52 7 -1 44 15 82 34 39 19
70 33 70 30 0 -2 -22 -16 -50 -30 -28 -14 -50 -28 -50 -30 0 -3 167 -5 371 -5
l372 0 -6 50 c-12 100 -46 121 -234 144 -18 2 -42 11 -55 20 -12 9 -30 16 -39
16 -19 0 -72 64 -61 74 3 4 -2 4 -12 0 -13 -5 -17 -4 -13 3 9 15 -16 23 -69
23 -25 0 -58 7 -74 15 -39 20 -80 76 -80 108 0 32 16 36 25 7 3 -11 14 -24 24
-30 17 -9 18 -7 4 32 -14 41 -14 42 14 64 25 20 29 20 34 6 4 -10 2 -24 -4
-32 -6 -8 0 -5 13 7 19 18 23 31 22 72 0 28 3 51 9 51 5 0 9 8 9 18 1 10 6 5
14 -13 7 -17 21 -37 31 -45 17 -14 17 -14 2 17 -17 32 -25 140 -9 115 6 -8 9
-3 9 16 0 16 13 54 28 85 l29 57 25 -23 24 -22 -16 25 c-9 13 -17 29 -17 35 0
5 10 -6 21 -25 22 -35 50 -62 58 -54 2 2 -4 13 -14 24 -23 26 -30 96 -16 162
7 29 14 64 17 77 l5 24 23 -22 c28 -26 53 -28 27 -2 -17 17 -51 111 -51 142 0
8 8 5 23 -8 32 -30 62 -43 94 -42 26 0 25 2 -14 19 -50 22 -68 53 -98 170 -13
47 -26 94 -30 105 -5 16 -1 14 19 -8 29 -31 50 -96 39 -123 -4 -12 -3 -15 5
-10 34 21 0 124 -65 201 l-34 40 38 6 c43 6 83 25 83 40 0 5 -11 2 -25 -7 -16
-10 -34 -14 -51 -10 -31 8 -120 89 -140 127 -8 16 -36 38 -68 54 -47 23 -65
26 -129 23 -60 -2 -73 0 -65 10 7 8 7 12 -1 12 -6 0 -16 11 -21 25 -13 34 -63
57 -134 61 -59 3 -60 3 -15 -5z m414 -320 c3 -8 0 -19 -7 -24 -9 -6 -8 -7 4
-3 12 3 22 -2 29 -17 10 -19 10 -20 -2 -11 -8 7 -23 13 -33 15 -11 2 -20 11
-21 20 -2 9 -6 26 -10 38 -6 20 -5 21 14 9 11 -7 23 -19 26 -27z m-166 -405
l22 -35 -23 -5 c-81 -17 -131 -26 -134 -23 -2 1 16 49 38 105 l42 102 17 -54
c9 -30 26 -70 38 -90z m-809 44 c-6 -37 -8 -40 -9 -13 -1 29 8 68 14 61 1 -2
-1 -23 -5 -48z m480 -12 c-45 -41 -40 -42 15 -4 29 19 29 19 16 1 -8 -11 -31
-37 -50 -57 -35 -38 -44 -40 -100 -22 -8 3 20 28 70 63 46 33 86 59 89 60 3 0
-15 -18 -40 -41z m191 -51 c-6 -18 -23 -49 -36 -67 -14 -19 -25 -43 -25 -53 0
-18 2 -19 18 -5 15 14 139 58 201 71 40 9 61 -12 61 -61 l0 -43 -26 20 c-36
29 -98 27 -158 -3 l-48 -24 24 26 c23 25 8 22 -24 -6 -19 -16 -25 -48 -8 -37
5 3 7 0 4 -8 -10 -26 13 -27 24 -2 8 16 20 25 34 25 18 0 20 -2 9 -9 -22 -14
4 -41 38 -41 31 0 51 16 51 42 0 19 25 25 34 9 10 -16 -5 -41 -33 -56 -18 -10
-21 -14 -9 -15 9 0 31 12 48 27 l32 27 -20 -40 c-11 -21 -33 -52 -48 -68 -28
-28 -28 -29 -4 -16 14 7 35 22 48 33 28 26 28 13 1 -33 l-21 -35 32 30 c31 29
32 29 20 5 -7 -14 -24 -37 -37 -51 -32 -35 -11 -50 23 -18 l25 24 -9 -25 c-47
-124 -160 -253 -266 -305 -68 -33 -91 -28 -188 45 -118 89 -199 197 -233 308
-7 23 -6 23 24 8 43 -23 45 -20 21 19 -12 20 -28 59 -36 88 l-13 52 46 47 c26
27 52 48 58 48 32 0 155 -45 155 -56 0 -17 -8 -17 -40 1 -39 22 -49 17 -12 -6
18 -12 31 -24 28 -26 -2 -3 -16 3 -29 12 -14 9 -42 17 -61 18 -20 1 -36 6 -36
10 0 12 -41 -2 -62 -21 -29 -25 -22 -60 15 -82 17 -11 39 -20 47 -20 9 0 5 6
-9 13 -37 19 -49 43 -29 63 11 12 21 14 33 6 12 -6 14 -11 6 -16 -8 -5 -8 -13
-1 -27 16 -29 65 -25 86 6 l17 26 18 -28 c11 -15 19 -25 20 -20 1 4 2 12 3 17
1 12 219 239 224 235 2 -2 -1 -19 -7 -38z m-132 6 c-6 -15 -20 -43 -31 -61
l-20 -33 -24 22 -24 22 52 39 c28 21 53 38 55 38 1 0 -2 -12 -8 -27z m-260 -7
c-6 -13 -20 -27 -32 -30 -17 -4 -15 0 9 25 34 35 37 36 23 5z m-292 -96 c-6
-26 -27 38 -26 78 l1 37 14 -50 c8 -27 12 -57 11 -65z m237 15 c-15 -22 -31
-36 -21 -17 2 4 7 15 10 25 4 9 11 17 17 17 6 0 3 -11 -6 -25z m146 -115 c0
-5 -9 -10 -20 -10 -11 0 -20 5 -20 10 0 6 9 10 20 10 11 0 20 -4 20 -10z m410
0 c0 -5 -9 -10 -20 -10 -11 0 -20 5 -20 10 0 6 9 10 20 10 11 0 20 -4 20 -10z
m225 -52 c-4 -13 -15 -35 -26 -50 -24 -35 -7 -37 26 -3 14 13 25 18 25 12 0
-16 -79 -97 -95 -97 -26 0 -22 15 20 77 25 36 45 69 45 74 0 5 3 9 6 9 3 0 2
-10 -1 -22z m-902 -147 c-6 -10 -38 28 -54 64 -36 79 -21 91 19 14 20 -41 36
-76 35 -78z m-6 107 c-3 -8 -6 -5 -6 6 -1 11 2 17 5 13 3 -3 4 -12 1 -19z
m123 -3 c14 -19 14 -19 -2 -6 -10 7 -18 18 -18 24 0 6 1 8 3 6 1 -2 9 -13 17
-24z m-35 -74 c-11 -10 -35 11 -35 30 0 21 0 21 19 -2 11 -13 18 -26 16 -28z"/>
<path d="M1453 763 c4 -3 10 -3 14 0 3 4 0 7 -7 7 -7 0 -10 -3 -7 -7z"/>
<path d="M1513 763 c4 -3 10 -3 14 0 3 4 0 7 -7 7 -7 0 -10 -3 -7 -7z"/>
<path d="M1467 649 c-32 -4 -60 -9 -63 -11 -4 -5 141 1 161 6 27 7 -47 11 -98
5z"/>
<path d="M1583 633 c4 -3 10 -3 14 0 3 4 0 7 -7 7 -7 0 -10 -3 -7 -7z"/>
<path d="M1473 583 c4 -3 10 -3 14 0 3 4 0 7 -7 7 -7 0 -10 -3 -7 -7z"/>
<path d="M1555 1870 c3 -5 8 -10 11 -10 3 0 2 5 -1 10 -3 6 -8 10 -11 10 -3 0
-2 -4 1 -10z"/>
<path d="M1693 1823 c4 -3 10 -3 14 0 3 4 0 7 -7 7 -7 0 -10 -3 -7 -7z"/>
<path d="M1084 1748 c-4 -7 -3 -8 4 -4 7 4 12 9 12 12 0 8 -9 4 -16 -8z"/>
<path d="M1024 1654 c-18 -14 -18 -15 4 -4 12 6 22 13 22 15 0 8 -5 6 -26 -11z"/>
<path d="M1024 1628 c-4 -7 -3 -8 4 -4 12 7 16 16 8 16 -3 0 -8 -5 -12 -12z"/>
<path d="M974 1618 c-4 -7 -3 -8 4 -4 12 7 16 16 8 16 -3 0 -8 -5 -12 -12z"/>
<path d="M860 1400 c0 -7 3 -10 7 -7 3 4 3 10 0 14 -4 3 -7 0 -7 -7z"/>
<path d="M851 1364 c0 -11 3 -14 6 -6 3 7 2 16 -1 19 -3 4 -6 -2 -5 -13z"/>
<path d="M1123 635 c0 -27 2 -38 4 -22 2 15 2 37 0 50 -2 12 -4 0 -4 -28z"/>
<path d="M2036 270 c18 -18 36 -31 42 -29 6 2 -8 17 -31 33 l-42 29 31 -33z"/>
<path d="M1410 222 c6 -13 14 -21 18 -18 3 4 -2 14 -12 24 -18 16 -18 16 -6
-6z"/>
<path d="M2425 78 c9 -44 24 -78 35 -78 15 0 12 10 -16 60 -19 34 -24 38 -19
18z"/>
</g>
</svg>
